<?xml version="1.0" encoding="UTF-8" standalone="no"?>
<!-- Created with Inkscape (http://www.inkscape.org/) -->

<svg
   width="50.599152mm"
   height="9.7055454mm"
   viewBox="0 0 50.599152 9.7055454"
   version="1.1"
   id="svg1"
   inkscape:version="1.4.3 (0d15f75, 2025-12-25)"
   sodipodi:docname="ninjatex_line.svg"
   xmlns:inkscape="http://www.inkscape.org/namespaces/inkscape"
   xmlns:sodipodi="http://sodipodi.sourceforge.net/DTD/sodipodi-0.dtd"
   xmlns="http://www.w3.org/2000/svg"
   xmlns:svg="http://www.w3.org/2000/svg">
  <sodipodi:namedview
     id="namedview1"
     pagecolor="#ffffff"
     bordercolor="#000000"
     borderopacity="0.25"
     inkscape:showpageshadow="2"
     inkscape:pageopacity="0.0"
     inkscape:pagecheckerboard="0"
     inkscape:deskcolor="#d1d1d1"
     inkscape:document-units="mm"
     inkscape:zoom="6.5760342"
     inkscape:cx="78.618813"
     inkscape:cy="16.043104"
     inkscape:window-width="2256"
     inkscape:window-height="1415"
     inkscape:window-x="-9"
     inkscape:window-y="-9"
     inkscape:window-maximized="1"
     inkscape:current-layer="layer1" />
  <defs
     id="defs1" />
  <g
     inkscape:label="Layer 1"
     inkscape:groupmode="layer"
     id="layer1"
     transform="translate(-42.821779,-81.363496)">
    <path
       style="font-size:11.2889px;font-family:'Grime Slime';-inkscape-font-specification:'Grime Slime, Normal';fill:#ff0000;stroke-width:0.264583"
       d="m 66.234847,82.928141 q -0.135467,-0.745067 -0.135467,-0.82409 0,-0.1016 0.259644,-0.180622 0.259645,-0.07902 0.733779,-0.169333 0.327378,-0.06773 0.440267,-0.101601 0.02258,0 0.06773,-0.02258 0.767646,-0.225778 1.004713,-0.259645 0.248355,-0.03387 0.270933,0.1016 0.03387,0.135467 -0.06773,0.62089 -0.03387,0.158044 -0.05645,0.237066 -0.135467,0.72249 -0.180622,1.490135 -0.03387,0.756357 -0.03387,1.896536 l 0.180623,2.901247 q 0.07902,0.598312 0.06773,0.801512 0,0.191911 -0.1016,0.259645 -0.1016,0.06773 -0.440267,0.112889 -0.530579,0.09031 -0.948268,0.2032 -0.04515,0.02258 -0.135467,0.04516 -0.259644,0.07902 -0.372533,0.06773 -0.1016,-0.02258 -0.214489,-0.180623 -0.112889,-0.169333 -0.383823,-0.699911 -0.09031,-0.169334 -0.135467,-0.259645 -0.09031,-0.169334 -0.293511,-0.51929 -0.03387,-0.05644 -0.04516,-0.07902 -0.01129,-0.02258 -0.04516,-0.07902 -1.557868,-2.698047 -1.715912,-2.87867 0,0.383823 0.09031,0.970846 0.09031,0.587023 0.191911,1.061156 0.1016,0.428979 0.282223,1.038579 0.169333,0.51929 0.146755,0.767645 -0.01129,0.237067 -0.383822,0.395112 l -1.286935,0.632178 q -0.327378,0.191912 -0.417689,0.09031 -0.07902,-0.101601 -0.07902,-0.383823 0,-0.02258 0,-0.03387 0,-0.462845 -0.225778,-2.404536 -0.02258,-0.214489 -0.03387,-0.293511 l -0.338667,-3.172181 q -0.01129,-0.146756 -0.03387,-0.349956 -0.01129,-0.214489 -0.03387,-0.259645 -0.01129,-0.05644 -0.1016,-0.158044 -0.06773,-0.09031 -0.112889,-0.146756 -0.383822,-0.451556 -0.417689,-0.666045 -0.03387,-0.225778 0.327378,-0.462845 0.553156,-0.372534 0.835379,-0.496712 0.282222,-0.135466 0.428978,-0.1016 0.146756,0.02258 0.361245,0.158045 0.225778,0.146756 0.4064,0.225778 0.03387,0.01129 0.1016,0.04516 0.2032,0.07902 0.293512,0.158044 0.146755,0.112889 0.124178,0.270934 0.01129,0.09031 0.01129,0.146755 0.04516,0.31609 0.282223,0.609601 0.07902,0.112889 0.124178,0.180622 l 2.280358,3.589871 q 0,-0.72249 -0.158045,-1.704624 -0.146756,-0.982134 -0.383822,-2.190047 z m 3.093155,1.524002 q -0.112889,0.04515 -0.225778,0.04515 -0.191911,0 -0.2032,-0.225778 0,-0.237067 0.05644,-0.6096 0.02258,-0.1016 0.02258,-0.135467 0.02258,-0.158045 0.05644,-0.395112 0.01129,-0.327378 0.124178,-0.417689 0.112889,-0.1016 0.598312,-0.2032 0.372533,-0.07902 0.632178,-0.146756 0.135467,-0.03387 0.361245,-0.07902 0.1016,-0.02258 0.158045,-0.04516 0.05644,-0.01129 0.158044,-0.03387 0.225778,-0.06773 0.338667,-0.06773 0.191911,0 0.158045,0.316089 -0.03387,0.31609 -0.135467,0.745068 -0.03387,0.1016 -0.03387,0.124178 -0.248356,1.23049 -0.316089,2.686758 -0.06773,1.444979 0.09031,2.709336 0.02258,0.112889 0.04516,0.316089 0.02258,0.214489 0.04515,0.338667 0,0.03387 0.01129,0.112889 0.05644,0.338667 0.05644,0.541868 0,0.191911 -0.564445,0.485422 -0.553156,0.293512 -1.038579,0.485423 -0.01129,0.01129 -0.03387,0.01129 -0.146755,0.06773 -0.225778,0.05644 -0.06773,0 -0.135467,-0.112889 -0.05644,-0.135466 -0.06773,-0.338667 0,-0.2032 0.03387,-0.519289 0.02258,-0.237067 0.02258,-0.327378 0,0 0,-0.598312 0,-0.225778 0.01129,-0.609601 0.02258,-0.395111 0.02258,-0.632178 l 0.06773,-1.185334 q 0.02258,-0.135467 0.02258,-0.372534 0,-0.158045 0,-0.248356 0,-0.07902 0.02258,-0.214489 0.02258,-0.214489 0.02258,-0.383823 0,-0.146755 0.03387,-0.462845 0.04515,-0.474133 0.01129,-0.654756 -0.1016,0.01129 -0.203201,0.04516 z m 7.258764,-1.524002 q -0.135467,-0.745067 -0.135467,-0.82409 0,-0.1016 0.259645,-0.180622 0.259644,-0.07902 0.733778,-0.169333 0.327378,-0.06773 0.440267,-0.101601 0.02258,0 0.06773,-0.02258 0.767645,-0.225778 1.004712,-0.259645 0.248356,-0.03387 0.270933,0.1016 0.03387,0.135467 -0.06773,0.62089 -0.03387,0.158044 -0.05644,0.237066 -0.135466,0.72249 -0.180622,1.490135 -0.03387,0.756357 -0.03387,1.896536 l 0.180623,2.901247 q 0.07902,0.598312 0.06773,0.801512 0,0.191911 -0.1016,0.259645 -0.1016,0.06773 -0.440267,0.112889 -0.530578,0.09031 -0.948268,0.2032 -0.04515,0.02258 -0.135466,0.04516 -0.259645,0.07902 -0.372534,0.06773 -0.1016,-0.02258 -0.214489,-0.180623 -0.112889,-0.169333 -0.383823,-0.699911 -0.09031,-0.169334 -0.135467,-0.259645 -0.09031,-0.169334 -0.293511,-0.51929 -0.03387,-0.05644 -0.04516,-0.07902 -0.01129,-0.02258 -0.04515,-0.07902 -1.557869,-2.698047 -1.715913,-2.87867 0,0.383823 0.09031,0.970846 0.09031,0.587023 0.191911,1.061156 0.1016,0.428979 0.282223,1.038579 0.169333,0.51929 0.146756,0.767645 -0.01129,0.237067 -0.383823,0.395112 l -1.286935,0.632178 q -0.327378,0.191912 -0.417689,0.09031 -0.07902,-0.101601 -0.07902,-0.383823 0,-0.02258 0,-0.03387 0,-0.462845 -0.225778,-2.404536 -0.02258,-0.214489 -0.03387,-0.293511 l -0.338667,-3.172181 q -0.01129,-0.146756 -0.03387,-0.349956 -0.01129,-0.214489 -0.03387,-0.259645 -0.01129,-0.05644 -0.101601,-0.158044 -0.06773,-0.09031 -0.112889,-0.146756 -0.383822,-0.451556 -0.417689,-0.666045 -0.03387,-0.225778 0.327378,-0.462845 0.553156,-0.372534 0.835379,-0.496712 0.282222,-0.135466 0.428978,-0.1016 0.146756,0.02258 0.361245,0.158045 0.225778,0.146756 0.4064,0.225778 0.03387,0.01129 0.1016,0.04516 0.203201,0.07902 0.293512,0.158044 0.146756,0.112889 0.124178,0.270934 0.01129,0.09031 0.01129,0.146755 0.04516,0.31609 0.282222,0.609601 0.07902,0.112889 0.124178,0.180622 l 2.280358,3.589871 q 0,-0.72249 -0.158045,-1.704624 -0.146755,-0.982134 -0.383822,-2.190047 z m 4.730046,1.354668 q -0.4064,0.135467 -0.677334,0.180623 -0.270933,0.04516 -0.508,-0.01129 -0.01129,-0.135467 -0.03387,-0.395112 -0.05644,-0.688623 -0.05644,-0.914401 0,-0.237067 0.07902,-0.316089 0.09031,-0.07902 0.349956,-0.158045 0.07902,-0.01129 0.112889,-0.02258 l 1.873957,-0.541868 q 0.09031,-0.02258 0.338667,-0.09031 0.745068,-0.214489 0.936979,-0.214489 0.07902,0 0.3048,0.191911 0.225778,0.191912 0.406401,0.496712 0.180622,0.3048 0.180622,0.643467 0,0 0,0.01129 0,0.225778 -0.03387,0.282223 -0.03387,0.05644 -0.237067,0.112889 -0.146755,0.04516 -0.383822,0.09031 -0.02258,0.01129 -0.02258,0.01129 0.07902,0.361245 0.225778,1.12889 0.191911,0.993423 0.316089,1.490135 0.02258,0.06773 0.05645,0.214489 0.282222,1.117601 0.395111,1.975557 0.112889,0.846668 -0.124178,1.422402 -0.146755,0.338667 -0.349956,0.553156 -1.320801,1.365957 -3.770492,-0.282222 -0.372534,-0.237067 -0.790223,-0.801512 -0.41769,-0.575734 -0.598312,-1.140179 -0.169334,-0.575734 0.1016,-0.869246 0.112889,-0.1016 0.293511,-0.259644 0.101601,-0.09031 0.158045,-0.146756 0.598312,-0.51929 0.835379,-0.666045 0.248355,-0.146756 0.316089,-0.04516 0.07902,0.1016 0.146756,0.496712 0.1016,0.654756 0.259644,1.083734 0.124178,0.316089 0.451556,0.699912 0.327378,0.372534 0.62089,0.372534 0.417689,0 0.451556,-0.406401 0.04515,-0.4064 -0.07902,-1.038578 -0.02258,-0.124178 -0.03387,-0.180623 -0.06773,-0.428978 -0.191911,-1.049868 l -0.248356,-1.591735 q -0.01129,-0.04516 -0.02258,-0.169333 -0.04516,-0.259645 -0.05644,-0.361245 -0.316089,0 -0.993423,0.214489 z m 7.428104,2.731914 q 0.135466,0 0.508,-0.07902 0.496712,-0.1016 0.733779,-0.1016 -0.02258,-0.248356 -0.349956,-1.095024 -0.02258,-0.04515 -0.07902,-0.2032 -0.248356,-0.688623 -0.338667,-0.801512 -0.02258,0.293512 -0.225778,1.095024 -0.01129,0.02258 -0.01129,0.04515 l -0.237067,1.140179 z m -3.318937,2.449691 q -0.135467,0.07902 -0.225778,0.112889 -0.09031,0.03387 -0.225778,0 -0.03387,-0.158044 0.01129,-0.338667 0.05644,-0.191911 0.180622,-0.462844 0.03387,-0.101601 0.05644,-0.146756 0.04515,-0.1016 0.09031,-0.237067 0.05644,-0.169334 0.112889,-0.225778 0.05644,-0.05644 0.327378,-0.214489 0.03387,-0.02258 0.04516,-0.03387 l 0.790223,-0.451556 q 0.169333,-0.135467 0.4064,-0.970845 0.237067,-0.846668 0.293512,-1.241779 0.158044,-0.903112 0.214489,-1.467557 0.02258,-0.225778 0.04516,-0.688623 0.02258,-0.575734 0.05644,-0.869246 0.03387,-0.225778 0.09031,-0.270933 0.05644,-0.05644 0.248356,-0.09031 0.09031,-0.01129 0.135467,-0.02258 0.135466,-0.02258 0.372533,-0.07902 0.191912,-0.04515 0.304801,-0.06773 0.293511,-0.05644 0.7112,-0.146756 0.530579,-0.135466 0.677334,-0.1016 0.146756,0.03387 0.180623,0.338667 l 1.63689,4.696183 q 0.02258,0.05644 0.05644,0.146755 0.09031,0.259645 0.112889,0.304801 0.03387,0.03387 0.1016,0.01129 0.09031,-0.02258 0.158045,-0.02258 0.02258,0 0.07902,0 0.327378,-0.02258 0.451556,0.07902 0.124178,0.1016 0.02258,0.51929 -0.01129,0.04516 -0.03387,0.124178 -0.04516,0.124177 -0.04516,0.225778 -0.02258,0 -0.05644,0.01129 -0.180623,0.03387 -0.248356,0.06773 0.06773,0.112889 0.180622,0.361245 0.169334,0.349956 0.270934,0.519289 0.372534,0.587023 0.4064,0.857956 0.03387,0.270934 -0.4064,0.428979 -0.462845,0.191911 -1.049868,0.474134 -0.508,0.270933 -0.654756,0.214489 -0.146756,-0.04516 -0.270934,-0.553156 l -0.575733,-2.133603 q -0.169334,0.01129 -1.004713,0.169334 -0.936978,0.180622 -1.140179,0.180622 -0.04516,0.214489 -0.169333,0.666045 -0.09031,0.327378 -0.124178,0.485423 -0.112889,0.440267 -0.180622,0.530578 -0.05644,0.09031 -0.270934,0.112889 -0.598312,0.112889 -1.320801,0.462845 -0.451556,0.214489 -0.632179,0.214489 -0.180622,0 -0.316089,-0.112889 -0.04516,-0.03387 -0.06773,-0.04515 0.06773,-0.293512 0.417689,-0.948268 0.237067,-0.451556 0.270934,-0.598312 -0.237067,0.05644 -0.496712,0.225778 z"
       id="text1"
       aria-label="NINJA" />
    <g
       id="g2" />
    <path
       style="font-size:14.9673px;font-family:'CMU Typewriter Text';-inkscape-font-specification:'CMU Typewriter Text, Normal';fill:#1a1a1a;stroke-width:0.329165"
       d="m 54.600152,89.920647 c 0,-0.132581 0.03429,-0.233159 0.102865,-0.301735 0.07314,-0.07314 0.139438,-0.114294 0.198872,-0.123438 0.064,-0.0091 0.150867,-0.01372 0.260589,-0.01372 h 0.308593 l 1.872131,-3.709976 -1.686975,-3.154507 h -0.322309 c -0.384027,0 -0.57604,-0.146295 -0.57604,-0.438887 0,-0.278877 0.192013,-0.418315 0.57604,-0.418315 h 1.460674 c 0.374884,0 0.562326,0.139438 0.562326,0.418315 0,0.132581 -0.03658,0.235445 -0.109722,0.308593 -0.06857,0.06857 -0.137153,0.107436 -0.205729,0.11658 -0.06401,0.0091 -0.160011,0.01372 -0.28802,0.01372 l 1.076646,2.05043 1.001214,-2.05043 c -0.141724,0 -0.251446,-0.0046 -0.329166,-0.01372 -0.07315,-0.0091 -0.14401,-0.04801 -0.212587,-0.11658 -0.06857,-0.07315 -0.102864,-0.176012 -0.102864,-0.308593 0,-0.278877 0.185156,-0.418315 0.555468,-0.418315 h 1.460673 c 0.384028,0 0.576041,0.14401 0.576041,0.43203 0,0.278877 -0.192013,0.420601 -0.576041,0.425172 h -0.308593 l -1.584111,3.140793 1.981854,3.72369 h 0.322308 c 0.384027,0 0.576041,0.146295 0.576041,0.438887 0,0.278877 -0.192014,0.418315 -0.576041,0.418315 h -1.460674 c -0.374884,0 -0.562325,-0.139438 -0.562325,-0.418315 0,-0.132581 0.03429,-0.233158 0.102864,-0.301735 0.07315,-0.07315 0.14401,-0.114294 0.212587,-0.123438 0.06857,-0.0091 0.173726,-0.01372 0.31545,-0.01372 l -1.392098,-2.722477 -1.289233,2.722477 c 0.141725,0 0.249161,0.0046 0.322309,0.01372 0.07315,0.0091 0.146296,0.0503 0.219444,0.123438 0.07772,0.06857 0.116579,0.169154 0.116579,0.301735 0,0.278877 -0.192013,0.418315 -0.57604,0.418315 h -1.460674 c -0.374884,0 -0.562326,-0.139438 -0.562326,-0.418315 z"
       id="path4" />
    <g
       id="g4"
       transform="matrix(0.95367856,0,0,0.9383398,-22.107526,15.521063)">
      <path
         style="font-size:14.9673px;font-family:'CMU Typewriter Text';-inkscape-font-specification:'CMU Typewriter Text, Normal';fill:#1a1a1a;stroke-width:0.350795"
         d="m 75.091584,78.904704 c -0.667487,-0.652871 -1.001231,-1.43729 -1.001231,-2.353258 0,-0.920839 0.314255,-1.707694 0.942765,-2.360565 0.628509,-0.652871 1.386131,-0.979306 2.272866,-0.979306 0.925712,0 1.639485,0.302074 2.141318,0.906223 0.506705,0.604149 0.760058,1.359336 0.760058,2.265559 0,0.131548 -0.01462,0.2363 -0.04385,0.314255 -0.02923,0.07795 -0.07796,0.136421 -0.146165,0.175398 -0.06334,0.03411 -0.121806,0.0536 -0.175398,0.05847 -0.05359,0.0049 -0.131548,0.0073 -0.233864,0.0073 H 75.15005 c 0.121804,0.618765 0.419006,1.11329 0.891606,1.483575 0.472601,0.365413 1.003667,0.548119 1.593199,0.548119 0.779547,0 1.298433,-0.299638 1.556658,-0.898915 0.04872,-0.141293 0.107186,-0.231428 0.175398,-0.270405 0.07308,-0.03898 0.18027,-0.05847 0.321563,-0.05847 0.345924,0 0.518886,0.136421 0.518886,0.409262 0,0.121804 -0.05116,0.270405 -0.153473,0.445803 -0.09744,0.170526 -0.243608,0.358104 -0.438495,0.562735 -0.194887,0.204631 -0.477472,0.377593 -0.847757,0.518886 -0.365413,0.136421 -0.777111,0.204631 -1.235095,0.204631 -0.959817,0 -1.773469,-0.326435 -2.440956,-0.979305 z"
         id="path3" />
      <path
         style="font-size:14.9673px;font-family:'CMU Typewriter Text';-inkscape-font-specification:'CMU Typewriter Text, Normal';fill:#f9f9f9;stroke-width:0.350795"
         d="m 75.164664,76.039869 h 3.982998 c -0.05847,-0.69672 -0.263098,-1.188809 -0.613894,-1.476267 -0.350796,-0.29233 -0.760058,-0.438495 -1.227786,-0.438495 -0.51645,0 -0.974434,0.182706 -1.373951,0.548119 -0.399518,0.36054 -0.655307,0.816088 -0.767367,1.366643 z"
         id="path2" />
    </g>
    <path
       style="font-size:14.9673px;font-family:'CMU Typewriter Text';-inkscape-font-specification:'CMU Typewriter Text, Normal';fill:#1a1a1a;stroke-width:0.329165"
       d="m 42.821779,83.357901 v -1.021786 c 0,-0.23316 0.03658,-0.386313 0.109722,-0.459461 0.07772,-0.07772 0.233159,-0.116579 0.466318,-0.116579 h 5.492957 c 0.23316,0 0.384027,0.03886 0.452603,0.116579 0.07315,0.07772 0.109722,0.230874 0.109722,0.459461 v 1.021786 c 0,0.123438 -0.0046,0.217158 -0.01372,0.281163 -0.0091,0.064 -0.05486,0.130295 -0.137153,0.19887 -0.07772,0.064 -0.192013,0.09601 -0.34288,0.09601 -0.214872,0 -0.347453,-0.04801 -0.397743,-0.14401 -0.05029,-0.100579 -0.07543,-0.244589 -0.07543,-0.432031 v -0.740624 h -1.858416 v 6.864482 h 0.733766 c 0.114294,0 0.201157,0.0046 0.26059,0.01372 0.05944,0.0091 0.123439,0.05029 0.192014,0.123437 0.07315,0.06857 0.109722,0.169155 0.109722,0.301736 0,0.278876 -0.187442,0.418315 -0.562326,0.418315 h -2.434457 c -0.114293,0 -0.201156,-0.0046 -0.260589,-0.01372 -0.05943,-0.0091 -0.123438,-0.04801 -0.192013,-0.116579 -0.06857,-0.07315 -0.102865,-0.173726 -0.102865,-0.301736 0,-0.278877 0.185156,-0.420601 0.555467,-0.425173 h 0.733766 v -6.864482 h -1.865273 v 0.740624 c 0,0.123438 -0.0069,0.217158 -0.02057,0.281163 -0.0091,0.064 -0.05257,0.130295 -0.130295,0.19887 -0.07772,0.064 -0.192013,0.09601 -0.34288,0.09601 -0.214872,0 -0.349739,-0.04801 -0.4046,-0.14401 -0.05029,-0.100579 -0.07543,-0.244589 -0.07543,-0.432031 z"
       id="text2" />
  </g>
</svg>
